# xmcd CD database file
#
# Track frame offsets:
#	150
#	18710
#	40065
#	68142
#	82950
#	104765
#	123075
#	140390
#	160480
#	180082
#	194235
#	215072
#	244940
#	267362
#
# Disc length: 3902 seconds
#
# Revision: 0
# Processed by: cddbd v1.4PL0 Copyright (c) Steve Scherf et al.
# Submitted via: CDex 1.40Release
#
DISCID=cd0f3c0e
DTITLE=Johnny Rivers - Back At The Whisky
DYEAR=2000
DGENRE=Blues
TTITLE0=Maybelline
TTITLE1=Baby, Can I Change My Mind
TTITLE2=China
TTITLE3=Sea Of Heartbreak
TTITLE4=The Letter
TTITLE5=House Of Blues
TTITLE6=Can't Find My Way Home
TTITLE7=Just To Hold My Hand
TTITLE8=He'll Have To Go
TTITLE9=Memphis
TTITLE10=Poor Side Of Town
TTITLE11=Baby, I Need Your Lovin
TTITLE12=Secret Agent Man
TTITLE13=Slow Dancin
EXTD=YEAR: 2000 ID3G: 0
EXTT0=
EXTT1=
EXTT2=
EXTT3=
EXTT4=
EXTT5=
EXTT6=
EXTT7=
EXTT8=
EXTT9=
EXTT10=
EXTT11=
EXTT12=
EXTT13=
PLAYORDER=
